<svg xmlns="http://www.w3.org/2000/svg" xmlns:xlink="http://www.w3.org/1999/xlink" width="500" zoomAndPan="magnify" viewBox="0 0 375 374.999991" height="500" preserveAspectRatio="xMidYMid meet" version="1.0"><defs><g/><clipPath id="5985132648"><path d="M 0 97.03125 L 236 97.03125 L 236 333 L 0 333 Z M 0 97.03125 " clip-rule="nonzero"/></clipPath><clipPath id="33c1080a9d"><path d="M 162 97.03125 L 375 97.03125 L 375 277 L 162 277 Z M 162 97.03125 " clip-rule="nonzero"/></clipPath></defs><g fill="#ffffff" fill-opacity="1"><g transform="translate(98.540015, 253.400951)"><g><path d="M 1.015625 -16.859375 L 8.53125 -16.859375 C 9.226562 -16.859375 9.945312 -16.773438 10.6875 -16.609375 C 11.4375 -16.453125 12.125 -16.148438 12.75 -15.703125 C 13.375 -15.265625 13.882812 -14.664062 14.28125 -13.90625 C 14.675781 -13.144531 14.863281 -12.164062 14.84375 -10.96875 L 14.828125 -4.96875 C 14.828125 -3.875 14.613281 -2.929688 14.1875 -2.140625 C 13.769531 -1.359375 13.234375 -0.71875 12.578125 -0.21875 C 11.929688 0.269531 11.210938 0.632812 10.421875 0.875 C 9.640625 1.125 8.867188 1.25 8.109375 1.25 L 1.015625 1.25 Z M 11.6875 -10.046875 C 11.6875 -11.171875 11.410156 -11.992188 10.859375 -12.515625 C 10.304688 -13.046875 9.335938 -13.3125 7.953125 -13.3125 L 5.03125 -13.3125 L 5.03125 -2.6875 L 8.1875 -2.6875 C 8.632812 -2.6875 9.066406 -2.726562 9.484375 -2.8125 C 9.910156 -2.90625 10.285156 -3.0625 10.609375 -3.28125 C 10.929688 -3.5 11.191406 -3.789062 11.390625 -4.15625 C 11.585938 -4.519531 11.6875 -4.984375 11.6875 -5.546875 Z M 11.6875 -10.046875 "/></g></g></g><g fill="#ffffff" fill-opacity="1"><g transform="translate(114.427304, 253.400951)"><g><path d="M 13.40625 -14 L 5.171875 -14 L 5.171875 -9.578125 L 11.96875 -9.578125 L 11.96875 -7.109375 L 5.171875 -7.109375 L 5.171875 -1.5 L 13.40625 -1.5 L 13.40625 1.21875 L 1.0625 1.21875 L 1.0625 -16.859375 L 13.40625 -16.859375 Z M 13.40625 -14 "/></g></g></g><g fill="#ffffff" fill-opacity="1"><g transform="translate(128.623925, 253.400951)"><g><path d="M 5.421875 1.25 L 1.015625 1.25 L 1.015625 -16.890625 L 5.421875 -16.890625 L 12.015625 -4.328125 L 12.015625 -16.890625 L 15.640625 -16.890625 L 15.640625 1.25 L 11.8125 1.25 L 5.421875 -10.09375 Z M 5.421875 1.25 "/></g></g></g><g fill="#ffffff" fill-opacity="1"><g transform="translate(145.132782, 253.400951)"><g><path d="M 0.421875 -16.890625 L 16.140625 -16.890625 L 16.140625 -13.0625 L 10.375 -13.0625 L 10.375 1.25 L 6.515625 1.25 L 6.515625 -13.0625 L 0.421875 -13.0625 Z M 0.421875 -16.890625 "/></g></g></g><g fill="#ffffff" fill-opacity="1"><g transform="translate(161.641639, 253.400951)"><g><path d="M 4.40625 1.25 L 0.390625 1.25 L 6.859375 -16.890625 L 10.375 -16.890625 L 16.796875 1.25 L 13.484375 1.25 L 12.359375 -2.515625 L 5.640625 -2.515625 Z M 6.640625 -4.65625 L 11.296875 -4.65625 L 9.03125 -12.34375 L 8.984375 -12.34375 Z M 6.640625 -4.65625 "/></g></g></g><g fill="#ffffff" fill-opacity="1"><g transform="translate(179.045551, 253.400951)"><g><path d="M 5.046875 -1.390625 L 13.3125 -1.390625 L 13.3125 1.265625 L 1.015625 1.265625 L 1.015625 -16.859375 L 5.046875 -16.859375 Z M 5.046875 -1.390625 "/></g></g></g><g fill="#ffffff" fill-opacity="1"><g transform="translate(192.968685, 253.400951)"><g/></g></g><g fill="#ffffff" fill-opacity="1"><g transform="translate(199.283824, 253.400951)"><g><path d="M 0.921875 -0.640625 L 0.921875 -4.65625 C 1.816406 -4.070312 2.804688 -3.5625 3.890625 -3.125 C 4.972656 -2.695312 6.164062 -2.484375 7.46875 -2.484375 C 7.914062 -2.484375 8.347656 -2.507812 8.765625 -2.5625 C 9.191406 -2.625 9.570312 -2.71875 9.90625 -2.84375 C 10.25 -2.96875 10.53125 -3.140625 10.75 -3.359375 C 10.976562 -3.578125 11.117188 -3.847656 11.171875 -4.171875 C 11.222656 -4.578125 11.125 -4.921875 10.875 -5.203125 C 10.632812 -5.492188 10.34375 -5.738281 10 -5.9375 C 9.65625 -6.144531 9.289062 -6.304688 8.90625 -6.421875 C 8.519531 -6.546875 8.203125 -6.632812 7.953125 -6.6875 C 6.660156 -7.019531 5.613281 -7.3125 4.8125 -7.5625 C 4.007812 -7.820312 3.492188 -8.019531 3.265625 -8.15625 C 1.710938 -9.019531 0.9375 -10.25 0.9375 -11.84375 C 0.9375 -12.6875 1.140625 -13.421875 1.546875 -14.046875 C 1.960938 -14.679688 2.492188 -15.207031 3.140625 -15.625 C 3.785156 -16.050781 4.503906 -16.367188 5.296875 -16.578125 C 6.097656 -16.785156 6.882812 -16.890625 7.65625 -16.890625 C 8.75 -16.890625 9.8125 -16.742188 10.84375 -16.453125 C 11.875 -16.160156 12.828125 -15.707031 13.703125 -15.09375 L 13.703125 -11.609375 C 13.359375 -11.910156 12.972656 -12.195312 12.546875 -12.46875 C 12.128906 -12.75 11.6875 -12.988281 11.21875 -13.1875 C 10.75 -13.382812 10.265625 -13.535156 9.765625 -13.640625 C 9.273438 -13.753906 8.789062 -13.785156 8.3125 -13.734375 C 7.5 -13.648438 6.847656 -13.46875 6.359375 -13.1875 C 5.878906 -12.914062 5.640625 -12.46875 5.640625 -11.84375 C 5.640625 -11.53125 5.78125 -11.25 6.0625 -11 C 6.351562 -10.75 6.691406 -10.523438 7.078125 -10.328125 C 7.460938 -10.140625 7.847656 -9.976562 8.234375 -9.84375 C 8.628906 -9.71875 8.941406 -9.617188 9.171875 -9.546875 C 10.023438 -9.296875 10.804688 -9.046875 11.515625 -8.796875 C 12.234375 -8.554688 12.847656 -8.238281 13.359375 -7.84375 C 13.867188 -7.457031 14.257812 -6.960938 14.53125 -6.359375 C 14.8125 -5.753906 14.9375 -4.976562 14.90625 -4.03125 C 14.863281 -3.082031 14.609375 -2.273438 14.140625 -1.609375 C 13.671875 -0.953125 13.078125 -0.414062 12.359375 0 C 11.648438 0.425781 10.867188 0.738281 10.015625 0.9375 C 9.171875 1.144531 8.367188 1.25 7.609375 1.25 C 6.492188 1.25 5.335938 1.082031 4.140625 0.75 C 2.953125 0.414062 1.878906 -0.046875 0.921875 -0.640625 Z M 0.921875 -0.640625 "/></g></g></g><g fill="#ffffff" fill-opacity="1"><g transform="translate(215.096521, 253.400951)"><g><path d="M 4.40625 1.25 L 0.390625 1.25 L 6.859375 -16.890625 L 10.375 -16.890625 L 16.796875 1.25 L 13.484375 1.25 L 12.359375 -2.515625 L 5.640625 -2.515625 Z M 6.640625 -4.65625 L 11.296875 -4.65625 L 9.03125 -12.34375 L 8.984375 -12.34375 Z M 6.640625 -4.65625 "/></g></g></g><g fill="#ffffff" fill-opacity="1"><g transform="translate(232.500432, 253.400951)"><g><path d="M 5.046875 -1.390625 L 13.3125 -1.390625 L 13.3125 1.265625 L 1.015625 1.265625 L 1.015625 -16.859375 L 5.046875 -16.859375 Z M 5.046875 -1.390625 "/></g></g></g><g fill="#ffffff" fill-opacity="1"><g transform="translate(246.423566, 253.400951)"><g><path d="M 13.40625 -14 L 5.171875 -14 L 5.171875 -9.578125 L 11.96875 -9.578125 L 11.96875 -7.109375 L 5.171875 -7.109375 L 5.171875 -1.5 L 13.40625 -1.5 L 13.40625 1.21875 L 1.0625 1.21875 L 1.0625 -16.859375 L 13.40625 -16.859375 Z M 13.40625 -14 "/></g></g></g><g fill="#ffffff" fill-opacity="1"><g transform="translate(260.620187, 253.400951)"><g><path d="M 0.921875 -0.640625 L 0.921875 -4.65625 C 1.816406 -4.070312 2.804688 -3.5625 3.890625 -3.125 C 4.972656 -2.695312 6.164062 -2.484375 7.46875 -2.484375 C 7.914062 -2.484375 8.347656 -2.507812 8.765625 -2.5625 C 9.191406 -2.625 9.570312 -2.71875 9.90625 -2.84375 C 10.25 -2.96875 10.53125 -3.140625 10.75 -3.359375 C 10.976562 -3.578125 11.117188 -3.847656 11.171875 -4.171875 C 11.222656 -4.578125 11.125 -4.921875 10.875 -5.203125 C 10.632812 -5.492188 10.34375 -5.738281 10 -5.9375 C 9.65625 -6.144531 9.289062 -6.304688 8.90625 -6.421875 C 8.519531 -6.546875 8.203125 -6.632812 7.953125 -6.6875 C 6.660156 -7.019531 5.613281 -7.3125 4.8125 -7.5625 C 4.007812 -7.820312 3.492188 -8.019531 3.265625 -8.15625 C 1.710938 -9.019531 0.9375 -10.25 0.9375 -11.84375 C 0.9375 -12.6875 1.140625 -13.421875 1.546875 -14.046875 C 1.960938 -14.679688 2.492188 -15.207031 3.140625 -15.625 C 3.785156 -16.050781 4.503906 -16.367188 5.296875 -16.578125 C 6.097656 -16.785156 6.882812 -16.890625 7.65625 -16.890625 C 8.75 -16.890625 9.8125 -16.742188 10.84375 -16.453125 C 11.875 -16.160156 12.828125 -15.707031 13.703125 -15.09375 L 13.703125 -11.609375 C 13.359375 -11.910156 12.972656 -12.195312 12.546875 -12.46875 C 12.128906 -12.75 11.6875 -12.988281 11.21875 -13.1875 C 10.75 -13.382812 10.265625 -13.535156 9.765625 -13.640625 C 9.273438 -13.753906 8.789062 -13.785156 8.3125 -13.734375 C 7.5 -13.648438 6.847656 -13.46875 6.359375 -13.1875 C 5.878906 -12.914062 5.640625 -12.46875 5.640625 -11.84375 C 5.640625 -11.53125 5.78125 -11.25 6.0625 -11 C 6.351562 -10.75 6.691406 -10.523438 7.078125 -10.328125 C 7.460938 -10.140625 7.847656 -9.976562 8.234375 -9.84375 C 8.628906 -9.71875 8.941406 -9.617188 9.171875 -9.546875 C 10.023438 -9.296875 10.804688 -9.046875 11.515625 -8.796875 C 12.234375 -8.554688 12.847656 -8.238281 13.359375 -7.84375 C 13.867188 -7.457031 14.257812 -6.960938 14.53125 -6.359375 C 14.8125 -5.753906 14.9375 -4.976562 14.90625 -4.03125 C 14.863281 -3.082031 14.609375 -2.273438 14.140625 -1.609375 C 13.671875 -0.953125 13.078125 -0.414062 12.359375 0 C 11.648438 0.425781 10.867188 0.738281 10.015625 0.9375 C 9.171875 1.144531 8.367188 1.25 7.609375 1.25 C 6.492188 1.25 5.335938 1.082031 4.140625 0.75 C 2.953125 0.414062 1.878906 -0.046875 0.921875 -0.640625 Z M 0.921875 -0.640625 "/></g></g></g><g clip-path="url(#5985132648)"><path fill="#1881c3" d="M 118.519531 216.308594 L 164.164062 307.898438 L 165.332031 310.246094 C 172.519531 323.640625 190.488281 332.789062 208.46875 332.789062 L 235.257812 332.789062 L 235.082031 332.4375 L 205.070312 272.417969 L 171.527344 205.339844 L 141.390625 145.054688 L 117.632812 97.53125 L 0 332.789062 L 77.765625 332.789062 C 106.515625 332.789062 130.046875 309.265625 130.046875 280.503906 L 85.933594 280.503906 L 117.621094 214.5 Z M 118.519531 216.308594 " fill-opacity="1" fill-rule="nonzero"/></g><path fill="#1881c3" d="M 220.054688 236.402344 L 263.839844 279.863281 C 261.554688 280.191406 259.59375 280.191406 257.308594 280.191406 C 246.046875 280.191406 235.488281 277.378906 226.261719 272.429688 L 256.269531 332.449219 C 256.621094 332.449219 256.957031 332.472656 257.308594 332.472656 C 274.621094 332.472656 291.285156 328.550781 306.324219 321.691406 C 326.90625 337.371094 356.320312 336.066406 374.941406 317.117188 L 293.910156 236.414062 C 273.644531 215.820312 240.632812 215.820312 220.054688 236.402344 Z M 220.054688 236.402344 " fill-opacity="1" fill-rule="nonzero"/><g clip-path="url(#33c1080a9d)"><path fill="#1881c3" d="M 257.308594 97.203125 C 218.417969 97.203125 183.988281 116.023438 162.578125 145.054688 L 192.714844 205.339844 C 197.3125 173.863281 224.289062 149.488281 257.296875 149.488281 C 293.246094 149.488281 322.648438 178.890625 322.648438 214.839844 L 321.992188 226.601562 C 321.992188 249.796875 337.023438 269.410156 357.613281 276.269531 C 368.722656 258.300781 374.929688 237.390625 374.929688 214.839844 C 374.929688 200.789062 372.316406 187.394531 367.742188 174.644531 C 351.40625 129.558594 308.273438 97.203125 257.308594 97.203125 Z M 257.308594 97.203125 " fill-opacity="1" fill-rule="nonzero"/></g></svg>