<svg xmlns="http://www.w3.org/2000/svg" xmlns:xlink="http://www.w3.org/1999/xlink" width="500" zoomAndPan="magnify" viewBox="0 0 375 374.999991" height="500" preserveAspectRatio="xMidYMid meet" version="1.0"><defs><g/><clipPath id="0b11362d39"><path d="M 0 149.46875 L 75 149.46875 L 75 225 L 0 225 Z M 0 149.46875 " clip-rule="nonzero"/></clipPath><clipPath id="5477ae75c0"><path d="M 69 188 L 118.5 188 L 118.5 224 L 69 224 Z M 69 188 " clip-rule="nonzero"/></clipPath><clipPath id="cc6b3a66a3"><path d="M 51 149.46875 L 118.5 149.46875 L 118.5 207 L 51 207 Z M 51 149.46875 " clip-rule="nonzero"/></clipPath></defs><g fill="#1881c3" fill-opacity="1"><g transform="translate(125.781178, 181.989787)"><g><path d="M 1.296875 -21.46875 L 10.859375 -21.46875 C 11.742188 -21.46875 12.660156 -21.363281 13.609375 -21.15625 C 14.566406 -20.945312 15.441406 -20.5625 16.234375 -20 C 17.023438 -19.4375 17.671875 -18.671875 18.171875 -17.703125 C 18.679688 -16.734375 18.925781 -15.488281 18.90625 -13.96875 L 18.875 -6.328125 C 18.875 -4.941406 18.601562 -3.742188 18.0625 -2.734375 C 17.53125 -1.734375 16.851562 -0.914062 16.03125 -0.28125 C 15.207031 0.351562 14.289062 0.820312 13.28125 1.125 C 12.28125 1.425781 11.296875 1.578125 10.328125 1.578125 L 1.296875 1.578125 Z M 14.890625 -12.796875 C 14.890625 -14.234375 14.535156 -15.28125 13.828125 -15.9375 C 13.117188 -16.601562 11.890625 -16.9375 10.140625 -16.9375 L 6.390625 -16.9375 L 6.390625 -3.421875 L 10.421875 -3.421875 C 10.992188 -3.421875 11.546875 -3.476562 12.078125 -3.59375 C 12.617188 -3.707031 13.09375 -3.898438 13.5 -4.171875 C 13.914062 -4.453125 14.25 -4.820312 14.5 -5.28125 C 14.757812 -5.75 14.890625 -6.34375 14.890625 -7.0625 Z M 14.890625 -12.796875 "/></g></g></g><g fill="#1881c3" fill-opacity="1"><g transform="translate(146.014479, 181.989787)"><g><path d="M 17.078125 -17.828125 L 6.59375 -17.828125 L 6.59375 -12.1875 L 15.234375 -12.1875 L 15.234375 -9.0625 L 6.59375 -9.0625 L 6.59375 -1.90625 L 17.078125 -1.90625 L 17.078125 1.546875 L 1.359375 1.546875 L 1.359375 -21.46875 L 17.078125 -21.46875 Z M 17.078125 -17.828125 "/></g></g></g><g fill="#1881c3" fill-opacity="1"><g transform="translate(164.094633, 181.989787)"><g><path d="M 6.90625 1.578125 L 1.296875 1.578125 L 1.296875 -21.5 L 6.90625 -21.5 L 15.296875 -5.515625 L 15.296875 -21.5 L 19.921875 -21.5 L 19.921875 1.578125 L 15.046875 1.578125 L 6.90625 -12.859375 Z M 6.90625 1.578125 "/></g></g></g><g fill="#1881c3" fill-opacity="1"><g transform="translate(185.119534, 181.989787)"><g><path d="M 0.53125 -21.5 L 20.5625 -21.5 L 20.5625 -16.625 L 13.203125 -16.625 L 13.203125 1.578125 L 8.296875 1.578125 L 8.296875 -16.625 L 0.53125 -16.625 Z M 0.53125 -21.5 "/></g></g></g><g fill="#1881c3" fill-opacity="1"><g transform="translate(206.144435, 181.989787)"><g><path d="M 5.609375 1.578125 L 0.5 1.578125 L 8.734375 -21.5 L 13.203125 -21.5 L 21.375 1.578125 L 17.171875 1.578125 L 15.734375 -3.203125 L 7.1875 -3.203125 Z M 8.453125 -5.921875 L 14.375 -5.921875 L 11.5 -15.703125 L 11.4375 -15.703125 Z M 8.453125 -5.921875 "/></g></g></g><g fill="#1881c3" fill-opacity="1"><g transform="translate(228.309247, 181.989787)"><g><path d="M 6.421875 -1.78125 L 16.9375 -1.78125 L 16.9375 1.609375 L 1.296875 1.609375 L 1.296875 -21.46875 L 6.421875 -21.46875 Z M 6.421875 -1.78125 "/></g></g></g><g fill="#1881c3" fill-opacity="1"><g transform="translate(246.041099, 181.989787)"><g/></g></g><g fill="#1881c3" fill-opacity="1"><g transform="translate(254.083754, 181.989787)"><g><path d="M 1.171875 -0.828125 L 1.171875 -5.921875 C 2.304688 -5.179688 3.566406 -4.535156 4.953125 -3.984375 C 6.335938 -3.441406 7.851562 -3.171875 9.5 -3.171875 C 10.070312 -3.171875 10.625 -3.207031 11.15625 -3.28125 C 11.695312 -3.351562 12.179688 -3.46875 12.609375 -3.625 C 13.046875 -3.78125 13.40625 -3.992188 13.6875 -4.265625 C 13.976562 -4.546875 14.15625 -4.898438 14.21875 -5.328125 C 14.28125 -5.828125 14.15625 -6.257812 13.84375 -6.625 C 13.539062 -7 13.164062 -7.3125 12.71875 -7.5625 C 12.28125 -7.820312 11.816406 -8.03125 11.328125 -8.1875 C 10.847656 -8.34375 10.453125 -8.453125 10.140625 -8.515625 C 8.492188 -8.941406 7.15625 -9.316406 6.125 -9.640625 C 5.101562 -9.972656 4.445312 -10.222656 4.15625 -10.390625 C 2.1875 -11.484375 1.203125 -13.046875 1.203125 -15.078125 C 1.203125 -16.148438 1.457031 -17.085938 1.96875 -17.890625 C 2.488281 -18.691406 3.160156 -19.363281 3.984375 -19.90625 C 4.804688 -20.445312 5.722656 -20.847656 6.734375 -21.109375 C 7.753906 -21.367188 8.757812 -21.5 9.75 -21.5 C 11.144531 -21.5 12.492188 -21.3125 13.796875 -20.9375 C 15.109375 -20.570312 16.328125 -20 17.453125 -19.21875 L 17.453125 -14.796875 C 17.003906 -15.171875 16.507812 -15.53125 15.96875 -15.875 C 15.4375 -16.226562 14.875 -16.53125 14.28125 -16.78125 C 13.6875 -17.039062 13.070312 -17.238281 12.4375 -17.375 C 11.8125 -17.507812 11.191406 -17.546875 10.578125 -17.484375 C 9.546875 -17.378906 8.722656 -17.148438 8.109375 -16.796875 C 7.492188 -16.453125 7.1875 -15.878906 7.1875 -15.078125 C 7.1875 -14.671875 7.363281 -14.3125 7.71875 -14 C 8.082031 -13.6875 8.507812 -13.40625 9 -13.15625 C 9.5 -12.914062 10 -12.707031 10.5 -12.53125 C 11 -12.363281 11.394531 -12.238281 11.6875 -12.15625 C 12.757812 -11.84375 13.75 -11.523438 14.65625 -11.203125 C 15.570312 -10.890625 16.351562 -10.484375 17 -9.984375 C 17.65625 -9.492188 18.15625 -8.863281 18.5 -8.09375 C 18.851562 -7.320312 19.007812 -6.332031 18.96875 -5.125 C 18.925781 -3.925781 18.601562 -2.90625 18 -2.0625 C 17.40625 -1.21875 16.648438 -0.523438 15.734375 0.015625 C 14.828125 0.554688 13.835938 0.953125 12.765625 1.203125 C 11.691406 1.453125 10.664062 1.578125 9.6875 1.578125 C 8.269531 1.578125 6.800781 1.363281 5.28125 0.9375 C 3.769531 0.519531 2.398438 -0.0664062 1.171875 -0.828125 Z M 1.171875 -0.828125 "/></g></g></g><g fill="#1881c3" fill-opacity="1"><g transform="translate(274.22207, 181.989787)"><g><path d="M 6.265625 -21.34375 L 6.265625 -6.171875 C 6.265625 -5.878906 6.300781 -5.570312 6.375 -5.25 C 6.457031 -4.9375 6.597656 -4.632812 6.796875 -4.34375 C 6.992188 -4.0625 7.257812 -3.832031 7.59375 -3.65625 C 7.9375 -3.476562 8.382812 -3.390625 8.9375 -3.390625 L 12.09375 -3.390625 C 12.625 -3.390625 13.066406 -3.476562 13.421875 -3.65625 C 13.785156 -3.832031 14.078125 -4.0625 14.296875 -4.34375 C 14.515625 -4.632812 14.671875 -4.953125 14.765625 -5.296875 C 14.867188 -5.648438 14.921875 -6.003906 14.921875 -6.359375 L 14.921875 -21.34375 L 20.015625 -21.34375 L 20.015625 -5.25 C 20.015625 -4.050781 19.816406 -3.019531 19.421875 -2.15625 C 19.035156 -1.289062 18.515625 -0.582031 17.859375 -0.03125 C 17.203125 0.519531 16.441406 0.925781 15.578125 1.1875 C 14.710938 1.445312 13.796875 1.578125 12.828125 1.578125 L 8.609375 1.578125 C 7.472656 1.578125 6.425781 1.390625 5.46875 1.015625 C 4.519531 0.648438 3.710938 0.140625 3.046875 -0.515625 C 2.390625 -1.179688 1.890625 -1.96875 1.546875 -2.875 C 1.210938 -3.789062 1.078125 -4.796875 1.140625 -5.890625 L 1.140625 -21.34375 Z M 6.265625 -21.34375 "/></g></g></g><g fill="#1881c3" fill-opacity="1"><g transform="translate(295.341968, 181.989787)"><g><path d="M 18.84375 -13.625 C 18.84375 -12.375 18.640625 -11.328125 18.234375 -10.484375 C 17.835938 -9.640625 17.28125 -8.953125 16.5625 -8.421875 C 15.84375 -7.898438 14.984375 -7.519531 13.984375 -7.28125 C 12.984375 -7.050781 11.890625 -6.925781 10.703125 -6.90625 L 6.203125 -6.90625 L 6.203125 1.578125 L 1.171875 1.578125 L 1.171875 -21.53125 L 10.671875 -21.53125 C 11.429688 -21.53125 12.28125 -21.453125 13.21875 -21.296875 C 14.15625 -21.140625 15.039062 -20.789062 15.875 -20.25 C 16.71875 -19.71875 17.421875 -18.925781 17.984375 -17.875 C 18.554688 -16.832031 18.84375 -15.414062 18.84375 -13.625 Z M 10.234375 -9.875 C 11.472656 -9.875 12.4375 -10.171875 13.125 -10.765625 C 13.8125 -11.359375 14.15625 -12.289062 14.15625 -13.5625 C 14.15625 -14.820312 13.867188 -15.757812 13.296875 -16.375 C 12.734375 -16.988281 11.804688 -17.304688 10.515625 -17.328125 L 6.203125 -17.328125 L 6.203125 -9.875 Z M 10.234375 -9.875 "/></g></g></g><g fill="#1881c3" fill-opacity="1"><g transform="translate(315.226969, 181.989787)"><g><path d="M 18.84375 -13.625 C 18.84375 -12.375 18.640625 -11.328125 18.234375 -10.484375 C 17.835938 -9.640625 17.28125 -8.953125 16.5625 -8.421875 C 15.84375 -7.898438 14.984375 -7.519531 13.984375 -7.28125 C 12.984375 -7.050781 11.890625 -6.925781 10.703125 -6.90625 L 6.203125 -6.90625 L 6.203125 1.578125 L 1.171875 1.578125 L 1.171875 -21.53125 L 10.671875 -21.53125 C 11.429688 -21.53125 12.28125 -21.453125 13.21875 -21.296875 C 14.15625 -21.140625 15.039062 -20.789062 15.875 -20.25 C 16.71875 -19.71875 17.421875 -18.925781 17.984375 -17.875 C 18.554688 -16.832031 18.84375 -15.414062 18.84375 -13.625 Z M 10.234375 -9.875 C 11.472656 -9.875 12.4375 -10.171875 13.125 -10.765625 C 13.8125 -11.359375 14.15625 -12.289062 14.15625 -13.5625 C 14.15625 -14.820312 13.867188 -15.757812 13.296875 -16.375 C 12.734375 -16.988281 11.804688 -17.304688 10.515625 -17.328125 L 6.203125 -17.328125 L 6.203125 -9.875 Z M 10.234375 -9.875 "/></g></g></g><g fill="#1881c3" fill-opacity="1"><g transform="translate(335.111958, 181.989787)"><g><path d="M 6.421875 -1.78125 L 16.9375 -1.78125 L 16.9375 1.609375 L 1.296875 1.609375 L 1.296875 -21.46875 L 6.421875 -21.46875 Z M 6.421875 -1.78125 "/></g></g></g><g fill="#1881c3" fill-opacity="1"><g transform="translate(352.843799, 181.989787)"><g><path d="M 20.71875 -21.46875 L 13.59375 -6.59375 L 13.59375 1.578125 L 7.4375 1.578125 L 7.4375 -6.9375 L 0.40625 -21.46875 L 6.046875 -21.46875 L 10.796875 -10.765625 L 15.296875 -21.46875 Z M 20.71875 -21.46875 "/></g></g></g><g clip-path="url(#0b11362d39)"><path fill="#1881c3" d="M 37.488281 187.191406 L 51.925781 216.164062 L 52.296875 216.90625 C 54.570312 221.144531 60.253906 224.035156 65.941406 224.035156 L 74.414062 224.035156 L 44.722656 164.652344 L 37.210938 149.621094 L 0 224.035156 L 24.597656 224.035156 C 33.691406 224.035156 41.136719 216.597656 41.136719 207.5 L 27.179688 207.5 L 37.207031 186.621094 Z M 37.488281 187.191406 " fill-opacity="1" fill-rule="nonzero"/></g><g clip-path="url(#5477ae75c0)"><path fill="#1881c3" d="M 69.605469 193.546875 L 83.457031 207.296875 C 82.734375 207.398438 82.113281 207.398438 81.390625 207.398438 C 77.828125 207.398438 74.488281 206.511719 71.570312 204.945312 L 81.0625 223.929688 C 81.171875 223.929688 81.277344 223.9375 81.390625 223.9375 C 86.867188 223.9375 92.136719 222.695312 96.894531 220.527344 C 103.40625 225.488281 112.707031 225.074219 118.597656 219.082031 L 92.96875 193.550781 C 86.554688 187.039062 76.117188 187.039062 69.605469 193.546875 Z M 69.605469 193.546875 " fill-opacity="1" fill-rule="nonzero"/></g><g clip-path="url(#cc6b3a66a3)"><path fill="#1881c3" d="M 81.390625 149.519531 C 69.089844 149.519531 58.199219 155.472656 51.425781 164.652344 L 60.957031 183.722656 C 62.414062 173.765625 70.945312 166.058594 81.386719 166.058594 C 92.757812 166.058594 102.058594 175.355469 102.058594 186.726562 L 101.851562 190.449219 C 101.851562 197.785156 106.605469 203.988281 113.117188 206.160156 C 116.632812 200.476562 118.59375 193.863281 118.59375 186.726562 C 118.59375 182.285156 117.769531 178.046875 116.320312 174.015625 C 111.15625 159.753906 97.511719 149.519531 81.390625 149.519531 Z M 81.390625 149.519531 " fill-opacity="1" fill-rule="nonzero"/></g><g fill="#1881c3" fill-opacity="1"><g transform="translate(150.177928, 216.698218)"><g><path d="M 1.171875 -0.828125 L 1.171875 -5.921875 C 2.304688 -5.179688 3.566406 -4.535156 4.953125 -3.984375 C 6.335938 -3.441406 7.851562 -3.171875 9.5 -3.171875 C 10.070312 -3.171875 10.625 -3.207031 11.15625 -3.28125 C 11.695312 -3.351562 12.179688 -3.46875 12.609375 -3.625 C 13.046875 -3.78125 13.40625 -3.992188 13.6875 -4.265625 C 13.976562 -4.546875 14.15625 -4.898438 14.21875 -5.328125 C 14.28125 -5.828125 14.15625 -6.257812 13.84375 -6.625 C 13.539062 -7 13.164062 -7.3125 12.71875 -7.5625 C 12.28125 -7.820312 11.816406 -8.03125 11.328125 -8.1875 C 10.847656 -8.34375 10.453125 -8.453125 10.140625 -8.515625 C 8.492188 -8.941406 7.15625 -9.316406 6.125 -9.640625 C 5.101562 -9.972656 4.445312 -10.222656 4.15625 -10.390625 C 2.1875 -11.484375 1.203125 -13.046875 1.203125 -15.078125 C 1.203125 -16.148438 1.457031 -17.085938 1.96875 -17.890625 C 2.488281 -18.691406 3.160156 -19.363281 3.984375 -19.90625 C 4.804688 -20.445312 5.722656 -20.847656 6.734375 -21.109375 C 7.753906 -21.367188 8.757812 -21.5 9.75 -21.5 C 11.144531 -21.5 12.492188 -21.3125 13.796875 -20.9375 C 15.109375 -20.570312 16.328125 -20 17.453125 -19.21875 L 17.453125 -14.796875 C 17.003906 -15.171875 16.507812 -15.53125 15.96875 -15.875 C 15.4375 -16.226562 14.875 -16.53125 14.28125 -16.78125 C 13.6875 -17.039062 13.070312 -17.238281 12.4375 -17.375 C 11.8125 -17.507812 11.191406 -17.546875 10.578125 -17.484375 C 9.546875 -17.378906 8.722656 -17.148438 8.109375 -16.796875 C 7.492188 -16.453125 7.1875 -15.878906 7.1875 -15.078125 C 7.1875 -14.671875 7.363281 -14.3125 7.71875 -14 C 8.082031 -13.6875 8.507812 -13.40625 9 -13.15625 C 9.5 -12.914062 10 -12.707031 10.5 -12.53125 C 11 -12.363281 11.394531 -12.238281 11.6875 -12.15625 C 12.757812 -11.84375 13.75 -11.523438 14.65625 -11.203125 C 15.570312 -10.890625 16.351562 -10.484375 17 -9.984375 C 17.65625 -9.492188 18.15625 -8.863281 18.5 -8.09375 C 18.851562 -7.320312 19.007812 -6.332031 18.96875 -5.125 C 18.925781 -3.925781 18.601562 -2.90625 18 -2.0625 C 17.40625 -1.21875 16.648438 -0.523438 15.734375 0.015625 C 14.828125 0.554688 13.835938 0.953125 12.765625 1.203125 C 11.691406 1.453125 10.664062 1.578125 9.6875 1.578125 C 8.269531 1.578125 6.800781 1.363281 5.28125 0.9375 C 3.769531 0.519531 2.398438 -0.0664062 1.171875 -0.828125 Z M 1.171875 -0.828125 "/></g></g></g><g fill="#1881c3" fill-opacity="1"><g transform="translate(195.648784, 216.698218)"><g><path d="M 5.609375 1.578125 L 0.5 1.578125 L 8.734375 -21.5 L 13.203125 -21.5 L 21.375 1.578125 L 17.171875 1.578125 L 15.734375 -3.203125 L 7.1875 -3.203125 Z M 8.453125 -5.921875 L 14.375 -5.921875 L 11.5 -15.703125 L 11.4375 -15.703125 Z M 8.453125 -5.921875 "/></g></g></g><g fill="#1881c3" fill-opacity="1"><g transform="translate(243.146136, 216.698218)"><g><path d="M 6.421875 -1.78125 L 16.9375 -1.78125 L 16.9375 1.609375 L 1.296875 1.609375 L 1.296875 -21.46875 L 6.421875 -21.46875 Z M 6.421875 -1.78125 "/></g></g></g><g fill="#1881c3" fill-opacity="1"><g transform="translate(286.210531, 216.698218)"><g><path d="M 17.078125 -17.828125 L 6.59375 -17.828125 L 6.59375 -12.1875 L 15.234375 -12.1875 L 15.234375 -9.0625 L 6.59375 -9.0625 L 6.59375 -1.90625 L 17.078125 -1.90625 L 17.078125 1.546875 L 1.359375 1.546875 L 1.359375 -21.46875 L 17.078125 -21.46875 Z M 17.078125 -17.828125 "/></g></g></g><g fill="#1881c3" fill-opacity="1"><g transform="translate(329.623221, 216.698218)"><g><path d="M 1.171875 -0.828125 L 1.171875 -5.921875 C 2.304688 -5.179688 3.566406 -4.535156 4.953125 -3.984375 C 6.335938 -3.441406 7.851562 -3.171875 9.5 -3.171875 C 10.070312 -3.171875 10.625 -3.207031 11.15625 -3.28125 C 11.695312 -3.351562 12.179688 -3.46875 12.609375 -3.625 C 13.046875 -3.78125 13.40625 -3.992188 13.6875 -4.265625 C 13.976562 -4.546875 14.15625 -4.898438 14.21875 -5.328125 C 14.28125 -5.828125 14.15625 -6.257812 13.84375 -6.625 C 13.539062 -7 13.164062 -7.3125 12.71875 -7.5625 C 12.28125 -7.820312 11.816406 -8.03125 11.328125 -8.1875 C 10.847656 -8.34375 10.453125 -8.453125 10.140625 -8.515625 C 8.492188 -8.941406 7.15625 -9.316406 6.125 -9.640625 C 5.101562 -9.972656 4.445312 -10.222656 4.15625 -10.390625 C 2.1875 -11.484375 1.203125 -13.046875 1.203125 -15.078125 C 1.203125 -16.148438 1.457031 -17.085938 1.96875 -17.890625 C 2.488281 -18.691406 3.160156 -19.363281 3.984375 -19.90625 C 4.804688 -20.445312 5.722656 -20.847656 6.734375 -21.109375 C 7.753906 -21.367188 8.757812 -21.5 9.75 -21.5 C 11.144531 -21.5 12.492188 -21.3125 13.796875 -20.9375 C 15.109375 -20.570312 16.328125 -20 17.453125 -19.21875 L 17.453125 -14.796875 C 17.003906 -15.171875 16.507812 -15.53125 15.96875 -15.875 C 15.4375 -16.226562 14.875 -16.53125 14.28125 -16.78125 C 13.6875 -17.039062 13.070312 -17.238281 12.4375 -17.375 C 11.8125 -17.507812 11.191406 -17.546875 10.578125 -17.484375 C 9.546875 -17.378906 8.722656 -17.148438 8.109375 -16.796875 C 7.492188 -16.453125 7.1875 -15.878906 7.1875 -15.078125 C 7.1875 -14.671875 7.363281 -14.3125 7.71875 -14 C 8.082031 -13.6875 8.507812 -13.40625 9 -13.15625 C 9.5 -12.914062 10 -12.707031 10.5 -12.53125 C 11 -12.363281 11.394531 -12.238281 11.6875 -12.15625 C 12.757812 -11.84375 13.75 -11.523438 14.65625 -11.203125 C 15.570312 -10.890625 16.351562 -10.484375 17 -9.984375 C 17.65625 -9.492188 18.15625 -8.863281 18.5 -8.09375 C 18.851562 -7.320312 19.007812 -6.332031 18.96875 -5.125 C 18.925781 -3.925781 18.601562 -2.90625 18 -2.0625 C 17.40625 -1.21875 16.648438 -0.523438 15.734375 0.015625 C 14.828125 0.554688 13.835938 0.953125 12.765625 1.203125 C 11.691406 1.453125 10.664062 1.578125 9.6875 1.578125 C 8.269531 1.578125 6.800781 1.363281 5.28125 0.9375 C 3.769531 0.519531 2.398438 -0.0664062 1.171875 -0.828125 Z M 1.171875 -0.828125 "/></g></g></g></svg>